HIERARCHY
ROOT hip
{
	OFFSET 0.000000 0.000000 0.000000 
	CHANNELS 6 Xposition Yposition Zposition Xrotation Zrotation Yrotation
	JOINT abdomen
	{
		OFFSET 0.000000 3.402643 0.000000 
		CHANNELS 3 Xrotation Zrotation Yrotation
		JOINT chest
		{
			OFFSET 0.000000 8.438565 -0.680529 
			CHANNELS 3 Xrotation Zrotation Yrotation
			JOINT neck
			{
				OFFSET 0.000000 10.207942 -0.272212 
				CHANNELS 3 Xrotation Zrotation Yrotation
				JOINT head
				{
					OFFSET 0.000000 3.130431 0.000000 
					CHANNELS 3 Xrotation Zrotation Yrotation
					End Site
					{
						OFFSET 0.000000 3.130435 0.000000 
					}
				}
			}
			JOINT lCollar
			{
				OFFSET 3.470700 6.669187 -0.816635 
				CHANNELS 3 Yrotation Zrotation Xrotation
				JOINT lShldr
				{
					OFFSET 3.198488 0.000000 0.000000 
					CHANNELS 3 Zrotation Yrotation Xrotation
					JOINT lForeArm
					{
						OFFSET 10.139888 0.000000 0.000000 
						CHANNELS 3 Yrotation Zrotation Xrotation
						JOINT lHand
						{
							OFFSET 8.370511 0.000000 0.000000 
							CHANNELS 3 Zrotation Yrotation Xrotation
							End Site
							{
								OFFSET 4.083176 0.000000 0.000000 
							}
						}
					}
				}
			}
			JOINT rCollar
			{
				OFFSET -3.470700 6.669187 -0.816635 
				CHANNELS 3 Yrotation Zrotation Xrotation
				JOINT rShldr
				{
					OFFSET -3.198488 0.000000 0.000000 
					CHANNELS 3 Zrotation Yrotation Xrotation
					JOINT rForeArm
					{
						OFFSET -10.139888 0.000000 0.000000 
						CHANNELS 3 Yrotation Zrotation Xrotation
						JOINT rHand
						{
							OFFSET -8.370511 0.000000 0.000000 
							CHANNELS 3 Zrotation Yrotation Xrotation
							End Site
							{
								OFFSET -4.083176 0.000000 0.000000 
							}
						}
					}
				}
			}
		}
	}
	JOINT lThigh
	{
		OFFSET 5.308129 -1.633274 1.361059 
		CHANNELS 3 Xrotation Zrotation Yrotation
		JOINT lShin
		{
			OFFSET -2.041588 -20.007561 0.000000 
			CHANNELS 3 Xrotation Zrotation Yrotation
			JOINT lFoot
			{
				OFFSET 0.000000 -19.190928 -1.224953 
				CHANNELS 3 Xrotation Yrotation Zrotation
				End Site
				{
					OFFSET 0.000000 -2.449906 4.627600 
				}
			}
		}
	}
	JOINT rThigh
	{
		OFFSET -5.308129 -1.633274 1.361059 
		CHANNELS 3 Xrotation Zrotation Yrotation
		JOINT rShin
		{
			OFFSET 2.041588 -20.007561 0.000000 
			CHANNELS 3 Xrotation Zrotation Yrotation
			JOINT rFoot
			{
				OFFSET 0.000000 -19.190928 -1.224953 
				CHANNELS 3 Xrotation Yrotation Zrotation
				End Site
				{
					OFFSET 0.000000 -2.449906 4.627600 
				}
			}
		}
	}
}
MOTION
Frames: 20
Frame Time: 0.033333
2.004747 52.171089 1.236245 -0.361328 -4.052734 62.763676 23.816328 -4.641028 -7.688022 -22.929688 12.050782 4.648438 51.553619 8.070152 2.616707 -55.693363 -11.660155 -5.234375 2.000000 -2.000000 0.000000 -81.503906 2.636719 10.986863 -51.162136 -1.647883 -1.973721 -13.803876 42.351631 -2.025277 -2.000000 2.000000 0.000000 84.716797 -25.166016 5.703125 53.786720 1.476459 -1.885934 -6.937924 -66.747444 12.615740 9.115317 -0.770689 0.708888 4.246527 -6.337709 -0.749427 -6.862379 12.284258 0.290668 -17.874458 -7.455824 -16.242887 25.211403 5.155717 1.995600 -4.172045 -6.175262 -7.934594 
4.006058 51.723537 2.463856 -1.240234 -4.052734 63.163368 23.781921 -4.562683 -7.451308 -22.392576 12.392579 4.631003 51.553619 8.070152 2.616707 -56.445316 -12.109374 -6.953125 2.000000 -2.000000 0.000000 -81.621094 -1.015625 11.152344 -51.523197 -1.647315 -1.963695 -13.674522 41.372799 -1.521165 -2.000000 2.000000 0.000000 84.013672 -25.136721 5.058594 53.610939 1.476459 -1.885934 -5.928267 -67.180298 11.613121 10.277068 -0.018920 -0.185055 8.146171 -6.148641 -1.133182 -9.694461 12.661573 -0.515066 -21.044458 -8.027089 -15.779879 23.617496 5.233479 1.863479 -10.598042 -3.423460 -6.553630 
6.014253 51.214497 3.708721 -1.943359 -4.228516 63.749275 23.611340 -4.407208 -7.392496 -21.845705 12.548830 4.589844 51.553619 8.070152 2.616707 -57.031254 -12.402344 -7.880861 2.000000 -2.000000 0.000000 -81.806641 -4.238281 11.288341 -52.055042 -1.656980 -2.129648 -13.377131 40.381634 -0.975276 -2.000000 2.000000 0.000000 83.388672 -25.585936 4.566097 53.598495 1.666312 -1.786850 -4.802327 -67.271965 10.543194 11.622191 0.878914 -0.233975 12.571404 -6.151738 -1.637773 -12.046045 12.244129 -0.872205 -23.697109 -8.220234 -15.584997 21.146734 5.334342 1.900511 -15.960033 -2.154448 -5.724582 
8.039737 50.695724 4.996817 -2.832031 -4.228516 64.169205 23.607117 -4.245985 -7.321889 -21.298828 12.695313 4.550783 51.553619 8.070152 2.616707 -57.539063 -12.187498 -7.949219 2.000000 -2.000000 0.000000 -82.285156 -6.503907 10.682487 -52.385723 -1.957497 -2.082784 -12.964909 40.180019 -0.182894 -2.000000 2.000000 0.000000 82.939453 -25.644533 3.925781 53.422977 1.666882 -1.796596 -4.802327 -67.271965 10.543194 12.682263 1.582080 -0.299275 16.621655 -6.044859 -2.106586 -12.095857 12.318490 -0.610923 -25.307154 -7.477304 -16.339235 17.785378 5.378590 1.732963 -17.330399 -1.820335 -4.429177 
10.083028 50.113392 6.337174 -3.720703 -4.228516 64.755135 23.396267 -4.170033 -7.106079 -20.917971 13.027345 4.501953 51.553619 8.070152 2.616707 -58.056641 -11.943358 -7.685548 2.000000 -2.000000 0.000000 -82.861328 -7.695313 10.291661 -52.213146 -1.786718 -1.838195 -13.388205 39.961796 -0.405452 -2.000000 2.000000 0.000000 82.861328 -25.683592 3.193360 53.260353 1.527481 -1.922072 -4.594454 -67.222191 10.105882 13.924046 2.627198 -0.515392 20.336391 -5.890906 -2.493008 -10.773188 13.025537 -0.448713 -24.114269 -4.644765 -17.621874 11.091133 5.564812 1.055545 -11.824605 -4.266012 -4.501941 
12.136101 49.489090 7.714802 -4.414062 -4.208984 65.165298 23.392282 -4.008810 -7.035453 -20.556641 13.017578 4.589674 51.553619 8.070152 2.616707 -58.388672 -11.562498 -7.472661 2.000000 -2.000000 0.000000 -83.134766 -7.246094 9.111328 -51.686100 -1.767790 -1.849081 -12.847803 40.041531 0.088572 -2.000000 2.000000 0.000000 83.066406 -25.380857 2.099610 53.096981 1.347369 -2.020817 -4.773337 -67.125336 10.640925 15.566234 3.797490 0.182296 23.153601 -5.797201 -2.753443 -9.034977 12.308974 -0.261027 -21.108664 -0.389152 -19.084080 2.789148 5.715308 -0.121278 -1.543949 -9.114724 -5.313554 
14.196449 48.595730 9.119509 -5.126953 -4.208984 65.565689 23.405968 -3.597651 -7.047260 -20.380859 13.183595 4.484650 51.553619 8.070152 2.616707 -58.662109 -11.015624 -6.972658 2.000000 -2.000000 0.000000 -83.779297 -5.751953 7.617187 -51.334545 -1.767790 -1.849081 -12.399407 40.161961 -0.071042 -2.000000 2.000000 0.000000 83.691406 -24.746094 0.825990 52.921200 1.347369 -2.020817 -5.079505 -66.189232 11.005828 18.756474 4.599591 1.055480 22.101454 -5.978922 -1.990341 -6.384746 15.627367 7.425429 -18.794203 2.744716 -20.330685 -1.620050 5.550278 -0.161480 5.217498 -13.673856 -4.031960 
16.261541 47.893021 10.541096 -5.839844 -4.208984 65.791008 23.292904 -2.607021 -7.383618 -20.937500 12.675782 4.453125 51.553619 8.070152 2.616707 -58.291012 -10.878906 -5.831922 2.000000 -2.000000 0.000000 -84.609375 -1.923828 5.214844 -50.825153 -1.628869 -2.150845 -10.574657 40.479351 -0.014703 -2.000000 2.000000 0.000000 83.945313 -24.492188 1.216654 52.921200 1.347369 -2.020817 -5.869284 -66.300949 11.738438 21.784855 4.697408 3.831666 20.508865 -5.986707 -2.349629 0.658279 19.834690 15.150879 -21.068119 1.641709 -19.887775 8.793152 5.652906 0.461900 3.072038 -15.118055 -3.350068 
18.328718 48.051678 11.969351 -6.191406 -4.208984 66.005859 23.369320 -1.351492 -7.788611 -21.865234 12.031252 4.335937 51.553619 8.070152 2.616707 -57.382816 -10.791015 -4.248048 2.000000 -2.000000 0.000000 -85.966797 3.515625 1.660757 -50.455685 -1.738543 -1.850792 -9.316980 40.825920 -0.477146 -2.000000 2.000000 0.000000 85.019531 -24.687500 2.226563 52.727764 1.517652 -2.089141 -7.477762 -66.722191 12.570313 21.019518 5.438818 5.209905 22.631905 -5.959713 -2.055294 16.478203 20.125267 17.435007 -20.778471 1.387035 -19.355682 13.738650 5.497111 1.474075 3.160775 -15.816476 -1.796845 
20.395552 49.489273 13.394065 -6.347656 -4.042969 65.809853 23.722353 -1.370837 -7.764587 -22.587891 11.513671 4.482422 51.553619 8.070152 2.616707 -57.148438 -10.097655 -3.847657 2.000000 -2.000000 0.000000 -86.914063 7.822267 -0.213513 -49.924149 -1.729426 -1.694865 -8.592440 41.960838 -0.349110 -2.000000 2.000000 0.000000 87.666016 -24.375000 1.968626 52.903549 1.517652 -2.089141 -8.569515 -67.053787 12.480224 13.514271 5.830253 6.282129 31.260038 -4.963506 -2.775942 20.654966 22.686216 18.328568 -18.186785 1.905217 -17.760345 14.272713 5.596692 1.025173 5.276459 -16.822392 0.020196 
21.872454 50.962143 14.612222 -6.542969 -4.042969 65.653610 24.472378 -2.650337 -6.931659 -23.154297 11.191407 4.677735 51.553619 8.070152 2.616707 -57.548832 -8.837890 -4.755859 2.000000 -2.000000 0.000000 -86.816406 10.517579 0.509597 -49.740128 -1.899149 -1.753388 -9.806797 44.298714 -0.145193 -2.000000 2.000000 0.000000 89.550781 -23.115234 2.109375 52.921200 1.347369 -2.020817 -8.919709 -67.096138 12.407790 3.062533 6.829308 6.331983 42.136829 -4.401474 -3.889583 22.944107 23.419661 14.204009 -15.357653 2.764093 -17.641100 12.854189 5.524237 1.244712 8.779459 -17.489372 0.997691 
23.585648 51.404770 16.123375 -6.005859 -3.691406 64.872421 25.368073 -4.262218 -5.882926 -23.515625 10.839844 4.931641 51.553619 8.070152 2.616707 -57.988285 -7.910156 -6.025391 2.000000 -2.000000 0.000000 -86.162109 12.763671 2.451172 -49.045418 -1.780308 -2.063783 -11.784620 47.498432 -0.083371 -2.000000 2.000000 0.000000 88.310547 -21.054686 4.830478 53.096996 1.337620 -2.021384 -7.760138 -66.470490 11.335476 -8.950506 7.846788 5.452182 54.082153 -3.822190 -4.510804 22.904209 21.681452 8.056869 -12.074232 2.998101 -17.009356 12.679741 5.956655 1.065019 6.423288 -16.756828 1.068232 
25.311808 51.655659 17.685909 -4.755859 -2.988281 63.164066 26.256424 -6.086837 -4.772161 -23.876955 10.683595 5.195313 51.553619 8.070152 2.616707 -58.457035 -7.167968 -7.070312 2.000000 -2.000000 0.000000 -86.064453 14.804688 3.408203 -49.041729 -1.909400 -1.928805 -13.841463 50.176624 -0.127710 -2.000000 2.000000 0.000000 85.898438 -18.789063 8.356230 53.260109 1.517163 -1.912895 -6.162395 -65.453011 10.335999 -20.832031 8.462847 4.728518 64.950089 -2.896370 -5.214233 21.553082 20.299479 1.128865 -8.716840 3.495528 -16.708185 10.916728 5.653579 0.978904 4.602739 -15.558930 0.115219 
26.988319 52.112915 19.280031 -3.007812 -2.304688 61.093357 26.955498 -8.305348 -3.702292 -24.238281 10.341798 5.625001 51.553619 8.070152 2.616707 -58.935551 -6.591796 -8.134768 2.000000 -2.000000 0.000000 -86.591797 16.972656 1.933594 -49.388824 -1.899719 -1.763133 -14.183523 51.344746 0.279496 -2.000000 2.000000 0.000000 83.242188 -15.888671 11.542970 53.422752 1.646815 -1.787988 -5.188411 -64.461143 9.545639 -30.887348 8.778822 4.893523 72.321869 -2.057566 -5.446740 19.487333 19.305496 -3.257276 -5.099665 2.675408 -15.900389 9.498034 6.167001 0.615260 3.112593 -14.305653 -0.253844 
28.550505 52.536049 20.835623 -1.425781 -1.425781 59.072025 27.855406 -10.260912 -2.724764 -24.599611 10.000001 5.878906 51.553619 8.070152 2.616707 -59.433594 -6.191406 -9.199220 2.000000 -2.000000 0.000000 -87.734375 19.082031 -0.045636 -49.937271 -1.609528 -1.819225 -13.669327 52.156918 0.808808 -2.000000 2.000000 0.000000 81.845703 -13.115234 12.937240 53.786240 1.446073 -1.868149 -5.139762 -62.995956 9.630921 -37.865459 9.050944 5.915920 72.838699 -2.008433 -5.484101 15.655926 19.219164 -4.280774 -2.162644 1.649887 -14.715219 8.095727 6.220910 0.440874 1.841097 -13.434443 -0.520134 
30.094177 52.859753 22.325367 0.166016 -0.722656 57.460941 28.552423 -12.279749 -1.609874 -24.970703 9.833985 6.152344 51.553619 8.070152 2.616707 -59.775391 -6.162109 -10.039063 2.000000 -2.000000 0.000000 -88.623047 21.210939 -2.373047 -50.460182 -1.738469 -2.017330 -13.472494 52.534756 0.968288 -2.000000 2.000000 0.000000 81.826172 -11.308593 11.894531 54.511707 1.325027 -1.972998 -7.031809 -62.099033 10.382357 -43.037292 9.414338 7.808253 68.003120 -2.829345 -5.353386 9.436403 18.896273 -3.150764 0.781603 0.739159 -13.302801 6.687527 6.219298 0.319518 0.930293 -13.060254 -0.425189 
31.609842 53.058746 23.667921 1.406250 -0.537109 56.210888 29.163952 -13.872293 -0.909923 -25.166016 9.492188 6.455079 51.553619 8.070152 2.616707 -60.117188 -5.957031 -10.557654 2.000000 -2.000000 0.000000 -89.277344 22.783203 -4.742312 -50.807247 -1.738543 -1.850792 -14.534595 52.601135 0.139013 -2.000000 2.000000 0.000000 81.708984 -9.521484 10.242526 55.362679 1.484425 -2.022624 -10.747820 -60.589905 12.684571 -47.281326 9.803387 10.201815 62.690639 -3.099931 -5.052651 2.722949 17.414013 -1.850866 3.118905 0.059022 -12.428208 5.663534 5.856888 0.652046 0.609619 -12.533732 0.352192 
33.198181 53.077465 24.880064 2.275391 -0.537109 55.683548 29.605997 -15.212346 -0.269307 -25.332033 9.306641 6.582031 51.553619 8.070152 2.616707 -60.478519 -6.093750 -10.478517 2.000000 -2.000000 0.000000 -89.814453 24.238281 -7.294922 -50.644360 -1.608318 -1.965976 -15.818506 52.203835 -1.249773 -2.000000 2.000000 0.000000 81.699219 -7.861328 8.524055 56.280907 1.173398 -2.392944 -13.411429 -59.119411 14.196563 -50.512768 9.783033 12.151082 57.233673 -3.393316 -4.781322 -2.485801 16.390680 -0.899195 4.864125 -0.614257 -11.228694 6.022274 6.216053 0.082681 -0.994574 -12.396762 1.113776 
34.891823 52.866035 25.999281 3.164063 -0.722656 55.302608 29.799532 -15.595894 -0.308885 -25.351564 8.955078 6.728516 51.553619 8.070152 2.616707 -60.693363 -6.425780 -9.521485 2.000000 -2.000000 0.000000 -90.869141 25.781250 -10.200831 -50.811756 -1.728720 -2.017899 -16.256987 52.651680 -1.782508 -2.000000 2.000000 0.000000 81.250000 -6.035156 8.164062 57.154701 1.191864 -2.205878 -15.220455 -58.355469 14.474954 -51.898869 9.518968 13.002521 51.984459 -3.988077 -4.501012 -6.913780 16.687008 0.144068 5.861088 -1.190206 -11.267782 7.977541 5.827510 0.749745 -3.421641 -12.683300 1.126831 
36.794449 52.565624 26.882322 4.042969 -1.240234 55.078121 29.747400 -15.024569 -0.994101 -24.814455 8.593750 6.972657 51.553619 8.070152 2.616707 -61.064453 -6.552733 -7.169083 2.000000 -2.000000 0.000000 -91.044922 27.558594 -12.173215 -51.509865 -1.727655 -1.831871 -16.325348 53.073112 -1.414128 -2.000000 2.000000 0.000000 80.488281 -3.232422 8.466797 57.681782 1.191296 -2.196133 -16.199459 -58.410870 15.094771 -52.730621 9.256082 13.899202 46.691673 -4.407383 -4.282032 -10.854219 17.765146 1.607058 6.485982 -2.380455 -10.486116 11.156273 5.717648 1.102845 -5.528878 -13.085940 1.176456 
